<svg width="1444" height="1089" fill="none" xmlns="http://www.w3.org/2000/svg"><defs/><path d="M556.8 6c2.3 3.3 6.5 9.5 9.4 14l5.1 8.2-6.6 5.5c-7.6 6.5-8 7.5-2.5 9 2.3.6 4.2 2.6 4.2 4.5 0 7 25.8 36.7 41.3 47.4l5.2 3.7-7.2-1.4c-8.3-1.7-22-8.3-23.8-11.4-1.9-3.1-15.3-9.5-23.6-11.4l-6.8-1.4.6 11.8c.6 9 0 12.4-2.5 14-4.7 3.2-17.8 0-19-4.5-1.7-6.2-28-9.1-35.4-3.7-3.3 2.5-3.3 3.9-1.2 16 4.5 24.8-2.1 48.8-14.3 51.7-7.7 1.8-7.5 5.1.8 11.6 6.6 5 7.5 6.6 6.4 12-2 10-11.1 19.9-23.1 25.2l-11.2 5v11.8c0 6.6-1.5 18.2-3.5 25.7-3.3 13.4-3.3 13.8 1.2 26.9 12.2 33.5 11.4 30 6.8 37.3L453 320l6 12.6c3.3 7 6 16 6 19.7 0 11.8 7.2 17.2 41.2 30.4 16.5 6.6 30.4 12 30.6 12.2.4.2-2.3 5.6-5.8 12-7.5 14-18 42.3-20.5 55-2 11.5-.4 12.1 21.5 7.8 23.4-4.6 38.5-4.8 41-.6 1.2 2.2 3.5 3 7.4 2.2 4-.8 10.6 1.5 23 7.7l17.4 8.7 19.8-3.5c11-2.1 29.6-5.8 41.6-8.7 26.3-6 35-6.2 45.5-.9 9.7 5 10.2 4 4.2-13.4a44 44 0 01-3-17c.9-2.9 9.8-12.2 20.7-21.7l19.5-16.8-25.5-26.3c-26.8-28.2-38.8-45.1-39-56.1-.3-5.4 1.2-8 7-13 9.7-8.3 52.7-30.9 69.9-36.3 17-5.6 28-12.8 32.3-21.3 4.3-8.3 3-22.8-4.4-53.4-6.8-28.6-12.6-42.7-21.5-52.4l-7.2-8 3.7-9.6c8.9-23.6 8.3-40.4-2-60.9-5.7-11.1-11.2-14.9-19.3-13.4a15 15 0 01-11-2.3c-24-16.4-25.2-16.8-30.4-15.5-9.3 2-38 17.8-46.3 25.2-7 6.4-8.5 6.9-17.2 5.6-18.6-2.5-23-10-10.1-17.6 12.6-7.4 9.7-9.5-16.4-11.2-9.9-.8-15-2-17-4.3-1.2-1.9-5.1-3.3-8.4-3.3-8.7 0-10-2.3-3.7-7 10.1-8.1 1-15.2-26.1-20-7.2-1.2-15.5-2.8-18.4-3.5L553 0l3.7 6z" fill="#FBF8F8"/><path d="M436.8 108.5c-11.3 2.7-16.1 11-14.9 25.6.2 2 3.1 6 6.5 8.9 6.8 5.8 13.2 20.1 11.5 26-2.2 7-13.2 14.2-21.5 14.2-11.8 0-15.5-5.4-16.3-23.4-.4-8.3-1-16.2-1.5-17.4-1.6-5.2-6.8-.3-9 8.3-1.1 5-7.7 20-14.6 34L364.6 210l17 3.5 16.7 3.8-14 6.6c-7.9 3.8-14.5 7-15 7.5-.1.4 5.9.4 14 0 13.6-.8 14.8-.6 28.3 7.7 7.6 4.5 17 9.5 20.9 10.8 6.4 2.2 7.4 2 11.2-2.5 3.3-4.2 3.7-6.9 2.7-16.4-2.7-22.4-3.1-20.8 7.4-25 13.3-5 21-10.7 25.5-19.4l3.9-7.5-6.6-6.9c-8.1-8.3-8.1-9.7-1.3-16.1 8.1-7.3 17.4-22.7 17.4-28.5 0-6.6-10-16.2-19.9-18.9a87.5 87.5 0 00-36-.2z" fill="#FBF8F8"/><path d="M370.7 243.6c-18.8 7.7-19.2 7.7-39.5 3.7C318 244.8 302.3 258 304 270c.6 4.2 1.6 4.6 11.3 4 10.6-.4 11-.4 15 7.3 4.9 9.8 8.6 13.3 22.2 20.2 12.4 6.2 18.2 13.5 16.8 21-.6 3-.4 5.9.6 6.5 2.3 1.2 9.3-2.3 17-8.8 7-6 9.7-6.2 9.7-1.2 0 7.5 10.7 25.6 18.1 30.6 14.1 9.6 22.4 5.4 20.5-9.8-1.6-11.2 2.5-23.7 7.4-23.3 5.6.6 10.4-8.1 8.7-15.6-1.6-7.7-9.9-17-15-17-5.6 0-8.1-3.5-9.8-14.5-1.8-11.3-5.1-15.6-17.8-21.9a55.3 55.3 0 01-12-8.1c-3.7-4.4-4.5-4.4-26 4.2z" fill="#FBF8F8"/><path d="M275.7 270.2c-9.9 5-13.4 9.7-13.6 17.8-.2 23-13.7 41-42.4 56.3-17.4 9.3-18.6 10.6-19.3 17.2-1 11-3.3 12.2-20.8 12.2-21.1 0-36.2-4.1-41.8-11.2a37.3 37.3 0 00-12.4-9.5c-9.3-4.8-10-3.7-5 10.1 1.7 5 4.6 17 6.2 26.7 1.9 10 4 19.7 4.4 21.6 1 3-.3 3.7-8 3.7-9.2 0-30.3 2.9-38.2 5.4-3.5 1-6.8-1-15.7-9.3-12-11.4-14-12.3-18.2-7.3-4.8 5.8-14.9 9.7-30.6 11.4-9.1 1-16.8 3.1-18.6 5-3 2.9-2.5 3.7 4.7 9.7 7.9 6.4 7.9 6.6 6.9 18.6l-1 12H19c3.7 0 14.6 3.3 24.2 7.5 9.3 4.1 23.7 9 31.6 11 13.4 3.3 14.5 3.9 14.5 9.3.2 3.9 2.9 8 8.9 13.6 6.8 6.4 8.7 9.5 8.7 15.1 0 10.8 9.9 23.8 27.3 35.8l15 10.4-.6 14.5c-2 49.2-9.5 101.6-18.8 131.2-5.4 17.2-5.4 18 .8 19.4 3.8 1 5.2 2.7 5.2 6.5 0 11.1 26.3 19.6 60.6 19.6 37.7 0 58.3 4.6 71.6 15.8 8 6.6 20.7 8.4 32.3 4.5 8.6-2.9 12-7.4 15.5-21.7 2.7-10.8 12.2-20.5 29-29.4 17.5-9.5 26.8-9 64 3a484.3 484.3 0 0035.4 10.6c7 1.3 14.3-2.4 32-17.3 8.1-6.7 17.7-13.7 21.2-15.6 6.2-3.3 14.9-14.7 14.9-19.2 0-1.5-3-1.9-7-1.5-5.4.7-8.6-.6-14.5-6-10.2-8.7-13.7-16.1-13.7-28.1a41.3 41.3 0 00-3.1-15.1c-4.6-7.9-3.7-9.7 5.4-16 9.3-6.2 9.3-6.2 1.6-26-3.7-10-4.1-13-2.2-16.2 3.5-5.6 3-10.1-2.1-17.8-6-8.7-10.2-8.5-24.4.4a71.7 71.7 0 01-12 6.5c-.2-.5 1.4-4 3.7-8.1 2.9-4.8 4-9.1 3.1-12.4-1-4.2 0-6.3 5.8-10.6 4-3.1 7.9-7.9 8.5-10.6.8-2.8 5.6-9.9 10.7-15.7a58 58 0 0010.6-16.3c.6-4.2 2.9-6.7 6.8-8.1 7-2.3 10.1-7.9 17.2-30.6 3-9.1 7.8-22.8 10.7-30 7.5-17.4 9.1-23.6 7.5-25.7-.6-1-6.8-4-13.7-6.2a1115 1115 0 01-37.4-15 307.5 307.5 0 00-37.2-13 84.2 84.2 0 01-28.8-14c-18.4-12.5-27.3-16.8-35-16.8-6.2 0-8-2.5-9.5-13.5-1-7.6-1.4-8.2-9.7-9.7a33.7 33.7 0 01-25.6-19.6l-4.4-9-10.1 1.3-10.4 1.4-3.3-8.6c-2.9-7.5-4.1-8.5-9.7-8.5-3.5.2-10 1.8-14.5 4.1zM797.2 276.4c-31.2 8.4-72.2 28.4-81.7 39.8-6.4 7.4-5.8 12.8 2.7 25 13.8 20.3 55.2 61.6 68.6 68.4 9.4 4.7 11.8 3.9 25-8.7l12.5-11.7 9.7 2.6c5.4 1.7 14.5 4.2 20.1 5.8 15.5 4.5 50.7 6.2 53.6 2.5 1.4-1.9 6-2.9 11.8-2.9 12 0 25.6-8.5 30-18.8 2.3-5.1 6.6-9.4 15.3-14.8 15.7-9.7 16.3-14.2 2.9-23.7-12.6-9-50.3-28.3-55.3-28.3-2.2 0-6.6 2.3-10 5.2-3.4 2.9-7.1 5.1-8.2 5.1-3.7 0-22.5-19.1-23.8-24-1.6-6-8.2-9.6-24.4-13.3-9-2.2-12.4-3.9-13.8-7.6-1.5-4-3.3-4.5-11.6-4.3-5.6 0-16 1.6-23.4 3.7z" fill="#FBF8F8"/><path d="M441.7 327.6c-4 9.3.2 28 6.5 30.2 4.7 1.6 11.7-6.2 11.7-13.3 0-11-15-25-18.2-16.9zM995.5 362c-5.8 4.5-7.4 4.9-11 2.8-2.4-1.4-6.5-2-10.2-1.2-7.4 1.7-20.2 12.6-20.2 17.3 0 7.4-24.5 24.7-35.2 25-5.8 0-14 8.2-15.3 15.2-2.4 13.1 10.1 32.3 26.8 40.3 8.5 4.1 10.1 4.1 25.8 1.9 16.4-2.3 22.6-5.4 22.6-11.3 0-3.8 6.4-6.4 19-8 5.1-.7 10.7-2.8 12.1-4.4 1.7-2 5.6-3 11-2.9 13.1.6 13.3.4 21.8-8.6 6.6-7.2 9.5-8.9 17.9-10 13.8-1.4 33.2 1.1 37.5 5 5.8 5.2 11.7 4 18.1-3.9 5.4-6.6 18.6-35.4 17-36.6-.5-.5-7.3-3.5-15.3-7-31.8-13.8-51.7-14.3-74.2-1.7-16.7 9.3-21.4 8.9-25.1-1.9-3.3-9.6-8.3-15.6-12.8-15.6-1.8 0-6.4 2.5-10.3 5.6zM811.4 406.8c-13 10.8-17.6 12.4-25.7 9.5-11.4-4.3-16.2-2.7-34 11.2-18.7 14.7-19.5 16.5-13.9 32 3.8 10.8 4 20 .6 21.3-1.4.4-6-.4-10-2-9.9-4.2-21.5-3.8-41.8 1.2-9.5 2.3-25.5 5.8-35.9 7.4l-24.5 4.6c-3.5.6-9-.4-13.9-2.5-11.4-5.2-14.5-3.3-14.5 8.3 0 7.4 1.3 10.7 5.4 14.9 5.4 5.3 6.5 5.3 22 1.6 4.2-1 7-.2 11.2 3 6.8 5.3 11.2 5.3 20 .1 6.8-4 32.7-10.7 42.8-11.2 3.8-.2 6.9 2.1 11.4 8.5 7.7 10.4 17.5 15.3 39.7 20.3 24.6 5.4 47.5 5 74.8-1.5 42.3-9.9 54.6-18.8 55-39.9.4-17 1.9-20.2 13-25.4l10.2-5-1.2-12.6c-1.7-16.3-6.9-33.6-11.6-38.4-2.3-2.3-8.3-4.1-16-5-6.6-.6-17.8-3-24.5-5.5-19-6.7-25.3-5.8-38.6 5.1z" fill="#FBF8F8"/><path d="M1060.7 424.8c-4.5 1-11.4 5-17 10-8.4 8-10.5 8.8-19.7 8.8-5.6 0-10.4.8-10.4 1.8 0 2.5-11.5 6.4-18.5 6.4-5.4 0-12.4 5.4-12.4 9.8 0 4.5-13.6 7.8-32.2 7.8-17.3 0-19.4-.4-27.4-6a30.7 30.7 0 00-9.1-5.1c-.4.4-2.3 3.5-4.4 6.6-2 3.3-6.8 7.2-10.7 8.9-5.6 2.2-7 3.9-6 6.8.6 2-.2 5-2 6.4a43 43 0 00-6.4 14 48.8 48.8 0 004.7 41.8c7.7 11.2 31.4 27 52.2 35 15.5 6 17.1 6.4 22.3 3.5 17.3-9.7 24.8-11.6 81.5-22 34.9-6.1 34.5-6 40.5-27.8 4.9-18.9 45-71.4 54-71.4 7.4 0 6.6-5-2.3-12.8a62.2 62.2 0 00-33.8-14c-2.3 0-6-2-8.5-4.2-5-4.6-22.4-6.8-34.4-4.3zM1328.5 430.7c-6.8 1.5-8.7 2.7-7.8 5.2 2.4 6.6 35 59.8 41.5 68 8.5 10.7 8.9 12.6 11.6 51.7 1 18.2 2.9 34 3.9 35 3.5 3.5 12-7 22.7-28.2a89 89 0 0114.5-22.3c2-1 7.8-1.5 12.8-.9 7 1 9.9.4 12.6-2.2 4.5-4.6 4.5-10.8-.2-12.3-2.1-.6-6.2-6.4-9.3-12.8-3.3-6.4-9.5-16.2-14-21.5-9.4-11-9.8-14-3.8-21.6 5.4-6.8 4-11.4-4.3-13-3.5-.7-7.3-3-8.5-5-1.5-2.9-4.3-4-10-4-5 0-8.4-1-9-3-1.7-4.2-14.9-10.4-27.9-13.3a40.6 40.6 0 00-24.8.2z" fill="#FBF8F8"/><path d="M1299 444.9c-8 6.1-33.2 17-49.5 21.4-15.8 4-16.8 4-21.6.4-11.2-7.8-13.9-8.6-22.1-7.6-4.6.6-16.2-.4-25.5-2a72.2 72.2 0 00-21.7-2 70 70 0 00-15.3 9.6c-6 4.5-11.6 7.6-12.9 7-2.7-1.7-23.4 30.7-35.4 55.4-11.6 23.6-14.5 27-32.5 36a78 78 0 00-13 7.2c0 .2 3.7 4.3 8.3 9 4.5 4.6 8.3 10 8.3 11.8 0 6.8 6.4 15.5 14.4 19.6 9 4.5 13.5 11 11.6 15.9-3.5 8.8 15 21 32.1 21.2 16 0 28.4 6.2 19.5 9.5-5 2-3.8 5.6 5.1 14.2 5.6 5.4 8.3 10 8.3 13.6 0 5.8 4 8 14.5 8 3 0 11 2.1 17.6 4.4 11 4 15.3 4.3 38.3 3.3 30.4-1.4 36.7-2.9 60-14.4 16-7.9 19-8.7 32.1-8.5 19 .2 37.7 5.8 44.3 13.4 4.2 4.6 7 6 13 6 8.5 0 12-4 12-13.6 0-14 13.7-54.5 18.5-54.5 1 0 3.5 2.1 5.4 4.6 2.9 4.5 3.5 4.5 8.7 1.6 3-1.8 7.8-6.4 10.3-10 4.4-6.3 4.6-7.7 1.9-11.4-4-6.2-16-6.8-24.9-1.5-9.7 6-24 5.8-29.6-.4-6-6.6-6.4-8.6-9.9-44.3a577.8 577.8 0 00-5.4-40.7c-4.5-16.5-34-68.2-45.5-80-6.4-6.2-13.3-7-19.5-2.3zM549.5 478.3c-23.6 3-38.7 6.5-48.6 11.3-11.8 6-29.6 24.9-33 35.1a18 18 0 01-8.7 10.9c-10.5 5.6-6.6 10.2 8.5 10.4 8.1 0 9.8.9 13.5 7 13 21.2 11.8 20.2 23.2 20.2 13-.2 20.5-4 23.2-11.7 2-5.9 13-14.4 18.4-14.4 1.5 0 4 3.1 5.6 6.9 1.7 4 4.4 8.1 6 9.6 4.8 4 12.2-1.5 20-14.4 3.6-5.9 7.5-10.5 8.8-10.5 1.4 0 4.8 1.9 7.7 4.2 2.9 2.3 6.2 4.2 7.2 4.2 3.1 0 16.8-11.7 21.7-18.8l4.4-6.3-9.3 1.3c-8.7 1.2-10 .8-16.6-5.9A43.6 43.6 0 01590 489c0-2.7-1-6.7-2-9-2.5-4.4-11.9-4.8-38.4-1.7z" fill="#FBF8F8"/><path d="M671 518.5c-3.7 1-10.1 4-14.5 7-5.8 4-9.5 5-15.1 4.1-7-1-7.7-.6-9.1 5.2-.6 3.5-3.5 7.8-6.4 9.5-2.7 1.8-5 5.1-5 7.4 0 5.4-8.3 9.3-15.6 7.4a29 29 0 01-11-6.8L589 547l-5.6 6.4a46 46 0 00-10.2 25.6c0 6.6-5.1 3.9-19-9.7-15.4-15.3-20.3-17-20.3-6.6 0 10-5.6 13.8-26.3 18.3-10 2.1-19.1 4.8-20.1 5.8-1.5 1.5-.7 5.2 2.5 11.4a51.7 51.7 0 014.5 12.2c0 1.6-3.7 6-8.3 9.5-4.5 3.5-8.3 7.4-8.3 8.4s2.7 6.2 6.3 11.8l6 9.7-4.4 3.5-4.6 3.3 5.4 8c5.2 8 16.4 15.1 23 15.1 4.4 0 7.9 5.2 6.5 9.1-2.7 7 6.6 3 25.9-11.7 10.7-8 20.9-15.7 22.3-16.6 4-2.4 39.6 15 49.7 24.2 8.7 7.8 13.7 19.4 17 39.9 1.9 12.6 5.6 17.7 35.5 50 23.6 25.5 48.4 47.8 60 53.8 4 2 12.9 4.8 19.7 6.2 19.3 4 26.5 7.7 36.9 18.6a49.6 49.6 0 0015.3 11.6c10.8 2.2 14.1 5.1 20.3 17 5 9.4 8.1 12.5 16.6 16.8a32.2 32.2 0 0115.3 14.3c6 10.7 14.3 34.7 17 48.5 1.7 9.3 1.5 11-3.5 18-6 8.9-11 21.3-11.2 28.3 0 5.5 7.7 9.5 12 6a89.5 89.5 0 0018.7-30.8c2.9-9 5-11.6 12.8-16.1 8.1-4.8 9.3-6.4 10-13.2.6-7.3-.2-9-12-19.9l-12.7-12.1 3.3-7.5c1.7-4.1 7.9-13.6 13.7-20.8 12.4-15.5 16-16.3 32.1-7.3 10 5.8 22 17.4 24.3 23.4.6 2 2 1.6 5.5-1.7 4.4-4.1 4.4-4.7 1.3-10.7-4.8-9.3-24.7-24.6-56-43-32.5-19.2-44-27-45.7-31.4-.7-1.6.8-5.1 3.5-8 7.2-7.6 2.7-10-20.7-10-19.5 0-20.7-.1-32.3-7.1a89.7 89.7 0 01-36.5-46.5c-14.1-36.4-20.3-44.4-42-55-9.4-4.5-9.8-4.5-12.7-.8-5.2 7-9 2.5-10.4-12.8-3.7-37.1-3.7-41.3-1.4-42.7 2.9-1.9 2.9-12-.2-22.1-3.7-12.8-.8-16.5 21.1-25.6 10.6-4.4 20.5-9.3 22-11 3.7-3.7 3.7-23.1 0-32.2-2.5-6-4.6-7.4-17-11.3-13.5-4-17.2-6-30.3-15.3-6.2-4.4-22.5-6.2-32.3-3.7z" fill="#FBF8F8"/><path d="M846.7 533.6a378.3 378.3 0 01-64.4 12.6c-20 2.7-23.4 12-12.4 34 9.7 19.5 19.9 25.8 27.8 17 4.8-5.2 9.5-5.2 20 .3 10.5 5.2 13 4.3 13-4.6.2-6 1.2-7.5 8-10.7 4.2-2 7.8-5 8-6.4l.4-9.6c.4-6.3 2-8.6 12.5-16.5 25.3-19.4 19.7-26.5-13-16z" fill="#FBF8F8"/><path d="M863.8 554c-8 3.7-11.8 10-10.1 18 1.4 7-.2 12.2-4 12.2-1.4 0-5 4.1-8.2 9.5-8.2 14-22 17-30.3 6.4-2.9-3.7-4-4-6.6-1.6-5.2 4.3-4 11.6 4 21.1 9 10.8 10.4 13.3 12 22.8 1 4.5 4.8 11.4 9.8 17.2 7.4 8.5 8.2 10.3 7.2 16.7-1.2 6.5-.6 8.1 7.6 16.2a66.2 66.2 0 0042 22c7.8 1 14.4 1.6 14.4 1.4.2 0-8-12.4-18.6-27.3-19.8-28.4-32.2-51-32.2-58.6 0-2.5 1-6.5 2-8.7 2.1-3.6 4.6-4 24.4-4 36.7 0 87.9 5.6 100 10.8 5.8 2.5 10.8 3.7 11.2 2.7 3.3-10.4 8.3-16.6 13-16.6 7.2 0 8 6.6 1 9.3-4.5 1.7-5 2.7-3 6 1 2.3 3 4.8 4 5.4 3.2 1.9 2.3 13.9-1 18.5-5.3 7-3.7 13.8 5.8 23.6l8.7 8.9-7.2 6-7.3 5.8 5.8 5.4c4.8 4.3 5.4 6 3.5 9.5-1.2 2.5-4.3 4.1-7.2 4.1-3.3 0-6.8 2.5-10.5 7.3-3.7 5-7 7.2-9.7 6.8-3.3-.4-4.8 1-6 6.4-1.2 4.4-3.5 7.3-6.2 8.1-3.5.8-4 2-2.9 9.3 1.7 9.6 15 31.1 20 32.1 2.1.5 7.5-3.5 12.4-9 5-5.3 11.2-10.4 13.6-11.5 10.5-3.9 34.9 9.8 37.2 21.2.6 3.5 2.4 6.8 4 7.4 1.7.6 9.2-1.6 16.8-5.2 10.1-4.7 19.2-7 33.4-8.7 23.3-2.4 27-5.3 25.4-18.6-1-7.7-.4-9 8.5-17.6 10-10.2 11.3-12.8 6.3-14.7-4.9-1.9-14.8-18.9-17.5-29.6-2-8.5-1.8-11.2.8-16.6 3.8-7 4.4-24.4 1.3-29.2-1.9-2.7-3-2.3-6.8 2.5a21.9 21.9 0 01-6 5.8c-.8 0-7.4-4.2-14.7-9.3-9-6.3-14-11.4-15.6-16-5.2-13.7-9-19.5-17.4-25.7a32.4 32.4 0 01-12.1-16.5c-2.1-6-7-13.5-12-18.5-7.4-7.2-9.5-8.3-18.2-8-12.3 0-31.7 4.3-36.7 8-3.7 2.7-3.7 3.1-.2 16.8 3.1 12 3.1 14.5.8 17-5 5-9.7-2.3-9.7-15 0-10.5-2.4-15.7-7.4-15.7-1.2 0-2.9 1.9-3.5 4.2-2.5 9.5-27.6 2.5-63.3-17.6-26.8-15-34.7-17.2-44.8-12.7z" fill="#FBF8F8"/><path d="M855.5 620.5c-3 3-1.3 11.6 4.5 23.1 10.5 20.2 34.7 54.2 47 65.7 6.5 6.2 11.7 12.8 11.7 14.6 0 6.8 12 20.4 27.3 31.2 8.4 5.5 16.3 10.3 17.6 10.3 1.8 0 2.3-2.7 1.6-9.1-1.6-14.8 11.7-34.4 21.1-31 2.7 1.1 3.1-.1 2.7-6.7-.4-7.4 0-7.8 5.9-8.5 11.6-1 12.3-1.8 7.3-9.4-3-5-4.2-10-3.8-15.7.2-6.2-.6-9.3-3-10.5-7-4-6-22.4 1.6-22.4 3.3 0 6.4-8.7 4.1-12.2-.8-1.4-4.6-1.9-9.2-1-5.8.8-10.2 0-16.4-3.1-11.1-5.6-21.7-7.6-57.4-11.6-38.2-4-36.8-4-39.3 3.1-1.2 3.3-2.7 6.2-3.1 6.2-.6 0-3.8-3.3-7.3-7.2-6.3-7-10-8.7-13-5.8zM1138.7 684.2a12.5 12.5 0 00-5.5 10.7c0 8.7 11.3 27.8 19 32 9.7 5.5 7.4 19-3.6 19-6.4 0-8.5 3.4-10 18.5-1.6 16.7.9 24.9 10.2 35.2 7.3 8 8.1 10.3 7.3 20.8-.2 4.4 1 6.4 5 8 4.3 2.1 8.7 1.7 23-1.8 22.9-5.8 30.8-5.8 47.8.6 17.8 6.8 36.1 7.2 49.4 1.5 7.3-3.1 10.6-6.4 15-14.5 9.3-16.9 29.9-24 44.6-15.6 6.8 4.1 11.6 2.9 14.7-4.1 3.4-7-1.6-16.7-8.5-16.7-6.2-.2-6.2-5.4.2-13.4 3.8-4.6 9-14.9 17.5-34.7 2-4.5 6-8 12.2-11 13.3-6.5 14.6-13.9 2.5-14.1a122 122 0 01-24.9-9.9c-19.3-8.9-22.2-9.7-36.5-9.7-14.8 0-16.4.4-34.3 10.3l-18.7 10.3-36.3-.2c-54-.2-77.5-5-78.3-15.2 0-3-.2-6.4-.4-7.9-.2-3.7-5.2-3-11.4 1.9zM1014.1 772.7c-8.6 2.9-11 11.4-7.1 24.6 4 13.5 4.3 51.4.4 62.4-2.3 6.2-2.3 8.9 0 15.5a47 47 0 012.8 13.5c0 3.9 2 6.8 6.8 10.1 9 6.2 13.8 12.4 13.8 17.8 0 2.7.8 4.8 1.9 4.8 3.3 0 15.8-16.2 22.8-29.2 3.5-6.9 7.8-13 9.5-13.7 4.5-1.6 3.4-5.6-5.8-23.6-8.7-16.4-8.9-17.4-8.9-36.7 0-14.5-1-21.7-3.5-26.3-7.1-13.4-22.8-22.8-32.7-19.2z" fill="#FBF8F8"/><path d="M1084.1 791c-2.5 2.5-5.1 4.1-5.8 3.3-3-2.9-12.8 5.2-18.1 15.1-6.9 12.6-7.5 21.5-2.5 32.5a24.1 24.1 0 0021.9 15c13.6 1.1 18 0 27.7-6.5a58 58 0 0120.6-8.1c19-3.1 25.7-19.4 15.1-37.8-6.8-12.5-15.5-16.4-36.6-17.4-16.7-.8-18.4-.6-22.3 4zM1314.5 802.7c-9 4-13.8 11.6-12 19.7 1 4.3.5 8-1.8 11.4-7 10.8-1.9 32.4 9 38.4 6.4 3.5 12 1.4 24.3-9.2 13-11.2 20.2-13.4 50.5-15.3l23-1.7-13.3-6.4c-15.5-7.5-19.8-11-28-22.4-7.7-10.6-9.1-11.6-14.5-10.4-2.2.5-7.6-.8-11.7-3a26 26 0 00-25.5-1.1zM1192 832.3c-5.1 1.7-16.1 3.7-24.6 4.8-11.9 1.4-16.2 2.9-18.7 6.2-2.5 3.1-7.1 4.8-17.5 6.2-13.3 1.9-25.1 7-30.5 13.7-1.7 1.8-6.3 3-11.5 3-12.2 0-15.5 1.7-15.5 7.5 0 2.7-2.8 7.9-6 11.8-3.4 3.7-7 10-8 13.9-1.4 5-3.3 7.4-7 8.2-4.6 1.3-5 2.3-4.8 12.9.4 18.2 12 35.6 26.2 38.9l6.8 1.6-6.6 1.5c-10.2 2.2-11.9 5.4-8 14.7 5 12 7.8 13 32.7 13.2 12.3 0 27.2 1 33.3 2.3a187.6 187.6 0 0157 27.7c4.7 4 9 6.6 9.7 6 2-2-2.5-15.5-7.5-22.1-5.2-6.7-14.4-13.5-40-29.6l-12.4-7.7 6.9-1.8c6.8-1.9 6.8-1.9 3.5-7a16.6 16.6 0 01-2.7-9.8c.6-4 1.9-4.6 9.5-4.1 7.3.4 9-.2 8.4-3-.5-1.8-3.6-4-7.3-5.1-6.5-1.7-7-2.7-10-15-.6-3.4-3.1-8.6-5.4-11.7-2-3.1-4-7.7-4-10 0-5.1 4.4-15.9 9-21.9 3.1-3.9 3.3-3.9 4.8 2.1 2 9.1 6.8 13.5 14.5 13.5 12.7 0 16.9-3 18.3-13 .8-5.3 3.3-11 5.6-13 4.8-4.5 37.4-11 54-11.3 6.3 0 16.5 1.5 22.5 3.3 6 1.7 14.3 3 18.5 2.5 7.3-.6 7.7-1 7.3-7.9-.3-3.9-1.7-8-3.6-9.5a75.7 75.7 0 00-21.4-3.5 205 205 0 01-35.7-6.6c-20-5.8-26.4-6.2-39.7-1.9z" fill="#FBF8F8"/><path d="M1103.5 1000a191 191 0 00-15.2 10.6l-10.9 8.3 12.6 13c12 12.5 14.8 18 10.4 20.6-3.1 2-2.5 12.7.8 15.4 2.3 2.1 4.2 2.1 7.6.2 6.5-3.5 9.6-1.4 15.7 10.4 2.9 5.6 6 10.4 6.9 10.4 1 0 3.3-3.5 5.4-7.7l3.8-7.9 4 5c2.3 2.7 5.2 4.4 7 3.5 5-1.8 3.8-14.7-3.3-30.7a46 46 0 01-5.2-15.8c.6-.6 5.8 1 11.3 3.5 11.7 5.4 22 5.2 23-.6.6-3.1 0-3.7-3.8-2.7-3.3.8-6.9-.8-13.2-6.6-12.5-11-22-17.7-33.8-23.5-14.3-7.3-18.2-8.1-23-5.4z" fill="#FBF8F8"/></svg>