<svg width="29" height="29" viewBox="0 0 29 29" fill="none" xmlns="http://www.w3.org/2000/svg"><path d="M3.519 10.028l-.085-1.87 1.564 1.003.544-.918-1.649-.85 1.649-.85-.544-.935-1.564 1.003.085-1.87H2.448l.085 1.87L.952 5.608l-.527.935 1.649.85-1.649.85.527.918 1.581-1.003-.085 1.87h1.071z" fill="#FE7865"/><path d="M18.07 19.52h-2.604v2.548h-.882V19.52H11.98v-.826h2.604v-2.562h.882v2.562h2.604v.826zm8.49-5.32v.714L22.458 24h-1.092l4.032-8.904h-5.04v1.834h-.994V14.2h7.196z" fill="#141517"/></svg>